<svg width="535" height="455" viewBox="0 0 535 455" fill="none" xmlns="http://www.w3.org/2000/svg">
<path d="M394.738 410.48H350.428V410.805H394.738V410.48Z" fill="#EBEBEB"/>
<path d="M171.76 411.697H157.289V412.022H171.76V411.697Z" fill="#EBEBEB"/>
<path d="M145.714 411.697H95.8438V412.022H145.714V411.697Z" fill="#EBEBEB"/>
<path d="M227.686 160.506L228.27 143.437L217.8 140.007C217.35 134.222 216.411 128.486 214.994 122.86L223.879 116.365L217.852 100.334L206.862 101.218C204.256 96.053 201.214 91.1203 197.769 86.4736L203.458 76.9776L191.767 64.4937L181.946 69.521C177.53 65.7462 172.812 62.3399 167.839 59.3365L169.424 48.4246L153.835 41.3578L146.69 49.7236C141.178 47.9604 135.53 46.6569 129.803 45.8265L127.205 35.1354L110.083 34.5508L106.706 45.0341C100.927 45.4884 95.1955 46.4226 89.5713 47.827L82.9722 38.9935L66.942 44.9821L67.8254 55.972C62.6633 58.6173 57.7315 61.6894 53.0812 65.1563L43.5202 59.3365L30.9845 71.0279L36.0118 80.9007C32.2359 85.2947 28.8459 90.006 25.8792 94.9823L14.9803 93.3455L7.86149 108.934L16.2793 116.066C14.5036 121.574 13.1999 127.224 12.3822 132.953L1.56113 135.668L0.976562 152.738L11.4988 156.167C11.9341 161.949 12.8685 167.681 14.2918 173.302L5.4063 179.797L11.4469 195.84L22.4368 194.957C25.0358 200.125 28.0783 205.058 31.5301 209.701L25.8273 219.197L37.5187 231.681L47.3394 226.653C51.744 230.427 56.454 233.83 61.4211 236.825L59.7843 247.724L75.3728 254.804L82.5565 246.438C88.0682 248.217 93.7162 249.542 99.4441 250.4L102.042 261.091L119.164 261.676L122.541 251.192C128.324 250.733 134.059 249.799 139.688 248.399L146.184 257.233L162.214 251.244L161.382 240.254C166.535 237.592 171.466 234.521 176.127 231.07L185.571 236.76L198.106 225.069L193.079 215.196C196.856 210.803 200.246 206.091 203.212 201.114L214.111 202.751L221.229 187.162L212.812 180.018C214.617 174.513 215.943 168.863 216.774 163.13L227.686 160.506ZM112.344 215.806C98.9478 215.354 85.9871 210.938 75.101 203.119C64.215 195.299 55.8926 184.427 51.1867 171.876C46.4808 159.326 45.6028 145.662 48.6637 132.613C51.7246 119.564 58.5869 107.715 68.3827 98.5669C78.1784 89.4183 90.4673 83.3805 103.695 81.2171C116.923 79.0538 130.495 80.8622 142.695 86.4135C154.895 91.9648 165.174 101.01 172.232 112.404C179.291 123.798 182.812 137.03 182.349 150.425C181.732 168.378 174.011 185.35 160.884 197.611C147.756 209.871 130.296 216.416 112.344 215.806Z" fill="#EBEBEB"/>
<path d="M519.877 104.047L524.177 100.033L522.475 96.6426C523.773 95.1233 524.942 93.4982 525.97 91.7841L529.737 92.3427L532.166 86.9647L529.282 84.5095C529.903 82.608 530.36 80.6566 530.646 78.6768L534.348 77.7545L534.53 71.8568L530.919 70.6877C530.76 68.6903 530.439 66.7091 529.958 64.764L533.01 62.4907L530.932 56.9698L527.152 57.2686C526.24 55.4879 525.184 53.7848 523.995 52.1763L525.957 48.9287L521.916 44.6159L518.539 46.3436C517.017 45.0484 515.393 43.8797 513.681 42.8492L514.226 39.082L508.861 36.6267L506.393 39.5236C504.488 38.9304 502.537 38.4959 500.56 38.2246L499.638 34.5353L493.74 34.3145L492.558 37.9518C490.568 38.1039 488.595 38.4255 486.66 38.9131L484.4 35.8603L478.866 37.9258L479.178 41.719C477.392 42.6217 475.688 43.6779 474.086 44.8757L470.812 42.9141L466.499 46.9282L468.175 50.2407C466.867 51.7556 465.694 53.3812 464.668 55.0992L460.913 54.5406L458.471 59.9186L461.368 62.3868C460.768 64.2855 460.333 66.2327 460.069 68.2065L456.354 69.1288L456.172 75.0265L459.796 76.1956C459.944 78.1934 460.261 80.1751 460.745 82.1193L457.679 84.3796L459.757 89.9005L463.55 89.6147C464.462 91.3954 465.518 93.0984 466.707 94.707L464.746 97.9546L468.786 102.267L472.163 100.54C473.681 101.839 475.307 103.008 477.022 104.034L476.463 107.788L481.841 110.244L484.309 107.36C486.216 107.947 488.166 108.381 490.142 108.659L491.064 112.348L496.962 112.569L498.144 108.932C500.134 108.78 502.107 108.459 504.042 107.97L506.302 111.023L511.836 108.957L511.537 105.164C513.318 104.26 515.017 103.204 516.616 102.008L519.877 104.047ZM489.194 79.1964C488.059 77.9809 487.311 76.4562 487.043 74.8152C486.775 73.1742 487 71.4907 487.69 69.9777C488.379 68.4646 489.501 67.19 490.915 66.315C492.329 65.4401 493.971 65.0041 495.632 65.0623C497.294 65.1205 498.901 65.6702 500.25 66.6419C501.599 67.6136 502.63 68.9636 503.212 70.5211C503.794 72.0787 503.9 73.7738 503.518 75.392C503.137 77.0102 502.283 78.4789 501.067 79.6121C500.259 80.3734 499.309 80.967 498.271 81.3586C497.232 81.7501 496.127 81.9318 495.017 81.8931C493.908 81.8545 492.818 81.5962 491.809 81.1333C490.801 80.6704 489.894 80.0121 489.142 79.1964H489.194Z" fill="#EBEBEB"/>
<path d="M362.691 279.314L349.259 270.026C347.943 265.19 346.132 260.501 343.855 256.036L347.298 242.526L327.812 221.663L314.094 224.17C309.79 221.592 305.233 219.463 300.493 217.818L292.153 203.775L263.574 202.801L254.299 216.233C249.468 217.549 244.785 219.355 240.321 221.624L226.811 218.181L205.949 237.667L208.456 251.359C205.88 255.671 203.755 260.238 202.117 264.986L188.074 273.326L187.1 301.905L200.545 311.18C201.839 316.043 203.647 320.754 205.936 325.236L202.454 338.629L221.94 359.491L235.567 356.997C239.903 359.579 244.491 361.711 249.259 363.363L257.586 377.379L286.165 378.367L295.427 364.934C300.301 363.618 305.028 361.807 309.534 359.53L322.967 362.96L343.842 343.474L341.335 329.782C343.919 325.47 346.044 320.898 347.674 316.142L361.717 307.802L362.691 279.314ZM273.772 322.69C267.427 322.473 261.29 320.379 256.135 316.675C250.98 312.97 247.039 307.819 244.811 301.875C242.583 295.931 242.167 289.459 243.617 283.279C245.067 277.098 248.316 271.487 252.955 267.153C257.594 262.819 263.414 259.958 269.678 258.932C275.943 257.905 282.371 258.76 288.151 261.386C293.93 264.013 298.8 268.295 302.147 273.689C305.493 279.084 307.164 285.35 306.949 291.694C306.651 300.203 302.989 308.247 296.766 314.058C290.543 319.869 282.268 322.974 273.759 322.69H273.772Z" fill="#EBEBEB"/>
<path d="M393.286 198.331H393.195L370.696 197.565C370.24 197.556 369.794 197.433 369.399 197.206C369.003 196.979 368.672 196.655 368.435 196.266L362.369 186.068C359.099 184.872 355.936 183.403 352.912 181.677L343.208 183.353C342.756 183.436 342.29 183.403 341.854 183.258C341.418 183.112 341.026 182.859 340.714 182.522L325.346 166.076C325.024 165.735 324.794 165.317 324.681 164.862C324.567 164.407 324.572 163.93 324.697 163.478L327.152 153.852C325.631 150.733 324.387 147.486 323.437 144.148L313.655 137.393C313.275 137.133 312.968 136.78 312.761 136.369C312.555 135.958 312.455 135.502 312.473 135.042L313.239 112.542C313.254 112.088 313.381 111.645 313.607 111.25C313.834 110.856 314.153 110.524 314.538 110.282L324.762 104.215C325.941 100.953 327.406 97.8017 329.139 94.7974L327.347 85.0156C327.263 84.5615 327.295 84.0936 327.44 83.6553C327.586 83.217 327.84 82.8225 328.178 82.5084L344.624 67.1538C344.964 66.8301 345.382 66.5991 345.836 66.4831C346.291 66.3671 346.768 66.3699 347.222 66.4912L356.887 68.9594C359.998 67.4375 363.237 66.19 366.565 65.2312L373.32 55.4494C373.571 55.0608 373.921 54.7464 374.335 54.5386C374.748 54.3308 375.209 54.2371 375.671 54.2672L398.158 55.0467C398.615 55.0564 399.062 55.1803 399.459 55.4072C399.856 55.6341 400.19 55.9567 400.431 56.3457L406.497 66.5562C409.744 67.7481 412.882 69.2171 415.876 70.947L425.697 69.1413C426.149 69.0573 426.615 69.0895 427.052 69.235C427.488 69.3804 427.88 69.6342 428.191 69.9727L443.559 86.4186C443.879 86.7606 444.107 87.1787 444.221 87.6333C444.335 88.088 444.33 88.5641 444.209 89.0167L441.74 98.6686C443.262 101.781 444.514 105.019 445.482 108.346L455.251 115.101C455.63 115.362 455.937 115.714 456.144 116.125C456.351 116.536 456.45 116.993 456.433 117.453L455.666 139.939C455.651 140.395 455.524 140.841 455.298 141.237C455.072 141.633 454.752 141.968 454.367 142.213L444.144 148.279C442.957 151.534 441.492 154.68 439.766 157.684L441.559 167.479C441.643 167.931 441.61 168.397 441.465 168.833C441.32 169.27 441.066 169.662 440.727 169.973L424.177 185.341C423.837 185.663 423.419 185.893 422.964 186.006C422.508 186.12 422.032 186.115 421.579 185.99L411.966 183.535C408.834 185.05 405.579 186.297 402.237 187.263L395.546 197.032C395.305 197.418 394.973 197.738 394.579 197.965C394.185 198.191 393.741 198.317 393.286 198.331ZM372.385 192.135L391.87 192.797L398.365 183.457C398.725 182.912 399.277 182.522 399.911 182.366C403.567 181.366 407.113 180.004 410.498 178.3C411.089 178.016 411.76 177.947 412.395 178.105L421.488 180.43L435.778 167.115L434.141 157.723C434.015 157.067 434.135 156.387 434.479 155.813C436.408 152.597 437.997 149.188 439.22 145.642C439.427 144.999 439.861 144.454 440.441 144.109L450.223 138.315L450.886 118.83L441.533 112.335C441.04 111.998 440.671 111.51 440.48 110.945C440.48 110.88 440.48 110.802 440.48 110.724C439.48 107.133 438.122 103.652 436.427 100.331C436.127 99.737 436.053 99.0536 436.22 98.4088L438.558 89.2115L425.243 74.922L415.902 76.6368C415.25 76.755 414.577 76.6352 414.006 76.299C410.783 74.3658 407.37 72.7682 403.821 71.5315C403.618 71.4663 403.422 71.3792 403.237 71.2717C402.863 71.0381 402.55 70.7171 402.327 70.3364L396.469 60.5286L376.983 59.8531L370.488 69.2192C370.101 69.7683 369.529 70.1601 368.877 70.3234C365.259 71.3121 361.751 72.6657 358.407 74.3635C357.817 74.6643 357.138 74.7382 356.497 74.5713L347.3 72.233L333.01 85.5482L334.725 94.8624C334.827 95.4499 334.741 96.0545 334.478 96.5901L334.349 96.8109C332.417 100.04 330.827 103.462 329.607 107.021C329.392 107.632 328.969 108.147 328.412 108.476L318.63 114.283L317.968 133.769L327.334 140.264C327.868 140.629 328.254 141.173 328.425 141.797C329.399 145.445 330.753 148.98 332.465 152.345C332.558 152.537 332.632 152.737 332.686 152.943C332.784 153.37 332.784 153.814 332.686 154.242L330.347 163.335L343.663 177.624L352.938 175.923C353.586 175.804 354.255 175.924 354.821 176.26C358.069 178.19 361.503 179.787 365.071 181.028C365.715 181.219 366.259 181.652 366.591 182.236L372.385 192.135ZM384.427 167.492C383.946 167.492 383.465 167.492 382.985 167.492C372.186 167.302 361.899 162.854 354.364 155.117C346.828 147.38 342.653 136.979 342.748 126.179C342.843 115.379 347.2 105.053 354.871 97.4499C362.542 89.8465 372.905 85.5805 383.706 85.5805C394.506 85.5805 404.87 89.8465 412.54 97.4499C420.211 105.053 424.568 115.379 424.663 126.179C424.758 136.979 420.583 147.38 413.048 155.117C405.512 162.854 395.226 167.302 384.427 167.492ZM384.427 90.7314C374.99 90.8941 365.999 94.7781 359.412 101.538C352.825 108.297 349.175 117.385 349.256 126.823C349.338 136.261 353.144 145.285 359.847 151.93C366.549 158.575 375.605 162.303 385.044 162.303C394.482 162.303 403.538 158.575 410.241 151.93C416.943 145.285 420.75 136.261 420.831 126.823C420.912 117.385 417.262 108.297 410.675 101.538C404.088 94.7781 395.098 90.8941 385.661 90.7314H384.427Z" fill="#EBEBEB"/>
<path d="M445.105 36.3688L435.777 33.8746L433.283 24.5475L436.934 20.9102L440.779 28.8733L448.755 32.7315L445.105 36.3688Z" fill="#E0E0E0"/>
<path d="M445.678 30.1308C446.081 29.7273 446.401 29.2484 446.62 28.7212C446.838 28.1941 446.95 27.6291 446.95 27.0585C446.95 26.488 446.838 25.923 446.62 25.3959C446.401 24.8687 446.081 24.3898 445.678 23.9863C445.274 23.5829 444.795 23.2628 444.268 23.0445C443.741 22.8261 443.176 22.7138 442.605 22.7138C442.035 22.7138 441.47 22.8261 440.943 23.0445C440.416 23.2628 439.937 23.5829 439.533 23.9863L444.171 17.0234L450.38 20.1671L451.744 26.6623L445.678 30.1308Z" fill="#E0E0E0"/>
<path d="M436.193 21.6591L443.026 14.8262L452.327 17.3073L454.835 26.6215L448.002 33.4545L438.688 30.9473L436.193 21.6591ZM448.599 27.245C449.207 26.6363 449.621 25.8608 449.789 25.0168C449.957 24.1727 449.87 23.298 449.541 22.503C449.211 21.7081 448.653 21.0287 447.938 20.5507C447.222 20.0727 446.381 19.8176 445.521 19.8176C444.66 19.8176 443.819 20.0727 443.103 20.5507C442.388 21.0287 441.83 21.7081 441.5 22.503C441.171 23.298 441.084 24.1727 441.252 25.0168C441.42 25.8608 441.834 26.6363 442.442 27.245C443.265 28.0523 444.373 28.5024 445.526 28.4975C446.679 28.4927 447.783 28.0333 448.599 27.219V27.245Z" fill="#F0F0F0"/>
<path d="M64.1998 284.99L69.2012 283.639L70.5392 278.638L68.5906 276.689L66.5251 280.963L62.2383 283.029L64.1998 284.99Z" fill="#E0E0E0"/>
<path d="M63.9134 281.641C63.5226 281.195 63.316 280.616 63.3357 280.023C63.3553 279.43 63.5997 278.867 64.0193 278.447C64.4388 278.028 65.0022 277.783 65.5952 277.764C66.1883 277.744 66.7666 277.951 67.213 278.342L64.7318 274.613L61.3154 276.276L60.5879 279.783L63.9134 281.641Z" fill="#E0E0E0"/>
<path d="M68.9793 277.081L65.316 273.418L60.3147 274.717L59.0156 279.718L62.614 283.421L67.6153 282.122L68.9793 277.081ZM62.3282 280.082C62.0873 279.871 61.8924 279.613 61.7553 279.324C61.6183 279.035 61.5421 278.72 61.5315 278.4C61.5209 278.08 61.5761 277.762 61.6937 277.464C61.8113 277.166 61.9887 276.896 62.2151 276.669C62.4414 276.443 62.7119 276.266 63.0096 276.148C63.3073 276.03 63.626 275.975 63.9459 275.986C64.2659 275.996 64.5802 276.073 64.8695 276.21C65.1588 276.347 65.4169 276.542 65.6278 276.783C66.0186 277.229 66.2252 277.807 66.2055 278.4C66.1858 278.993 65.9415 279.557 65.5219 279.976C65.1024 280.396 64.539 280.64 63.9459 280.66C63.3529 280.679 62.7746 280.473 62.3282 280.082Z" fill="#F0F0F0"/>
<path d="M46.1945 10.8266L50.3515 14.9835C50.8714 15.4944 51.5711 15.7807 52.3 15.7807C53.029 15.7807 53.7287 15.4944 54.2486 14.9835C54.7565 14.462 55.0406 13.7629 55.0406 13.0349C55.0406 12.307 54.7565 11.6079 54.2486 11.0864L50.1047 6.94242C49.5832 6.43457 48.884 6.15039 48.1561 6.15039C47.4282 6.15039 46.729 6.43457 46.2075 6.94242C45.6988 7.46003 45.4126 8.15607 45.4102 8.88185C45.4077 9.60762 45.6893 10.3056 46.1945 10.8266Z" fill="#F0F0F0"/>
<path d="M43.271 0.498428C44.3557 0.196794 45.5049 0.218486 46.5775 0.560847C47.65 0.903208 48.5993 1.55134 49.3087 2.42565C50.0181 3.29995 50.4567 4.36238 50.5707 5.48248C50.6847 6.60258 50.4691 7.7316 49.9505 8.7309C49.4318 9.73021 48.6326 10.5563 47.651 11.1077C46.6694 11.6592 45.5481 11.912 44.4249 11.8351C43.3016 11.7582 42.2253 11.355 41.328 10.6749C40.4307 9.99485 39.7515 9.06756 39.3738 8.0069C39.1341 7.25808 39.0448 6.46924 39.1111 5.68578C39.1774 4.90232 39.398 4.13971 39.7602 3.44185C40.1224 2.74399 40.6191 2.12466 41.2216 1.6195C41.8241 1.11435 42.5206 0.733346 43.271 0.498428Z" fill="#E0E0E0"/>
<path d="M38.7518 7.31533L39.3535 8.99023L51.7013 4.55449L51.0996 2.87959L38.7518 7.31533Z" fill="#F0F0F0"/>
<path d="M271.758 454.973C410.863 454.973 523.63 448.389 523.63 440.268C523.63 432.146 410.863 425.562 271.758 425.562C132.653 425.562 19.8867 432.146 19.8867 440.268C19.8867 448.389 132.653 454.973 271.758 454.973Z" fill="#F5F5F5"/>
<path d="M114.159 122.444H113.925C108.079 120.171 104.585 117.963 102.766 115.299C101.342 115.569 99.8696 115.369 98.57 114.728C97.0477 113.983 95.7849 112.797 94.9457 111.324C94.5046 111.663 93.9852 111.884 93.4356 111.968C92.886 112.052 92.3241 111.996 91.802 111.805C90.2011 111.206 88.8349 110.109 87.9049 108.674C87.3232 109.108 86.6 109.307 85.8784 109.233C81.9813 108.921 76.7851 101.231 76.4084 93.0469C76.4045 92.8741 76.467 92.7065 76.583 92.5784C76.699 92.4504 76.8596 92.3716 77.0319 92.3584C77.1172 92.3549 77.2024 92.3683 77.2825 92.3977C77.3627 92.4272 77.4362 92.4722 77.4989 92.5301C77.5617 92.588 77.6124 92.6577 77.6482 92.7352C77.6839 92.8128 77.7041 92.8966 77.7074 92.9819C78.0711 100.776 83.0465 107.7 85.9953 107.934C86.2099 107.958 86.4271 107.939 86.6344 107.879C86.8417 107.819 87.0351 107.718 87.2034 107.583C86.1874 105.731 85.5494 103.696 85.3264 101.595C85.1034 99.4943 85.2999 97.3703 85.9044 95.3462C87.0216 91.449 88.0088 89.9162 89.2039 90.15C91.4383 90.7086 91.1395 99.2433 89.9574 104.816C89.7783 105.821 89.4078 106.783 88.8662 107.648C89.632 108.932 90.7881 109.938 92.1658 110.519C92.533 110.659 92.9326 110.69 93.3171 110.61C93.7017 110.529 94.055 110.34 94.3352 110.064C93.3219 107.557 93.0361 104.128 94.4911 99.7629C96.3097 94.0081 97.0891 93.8523 97.4918 93.7484C97.6433 93.7165 97.8006 93.7263 97.9469 93.7766C98.0933 93.8269 98.2234 93.9159 98.3232 94.0341C99.5313 95.3981 98.0894 104.336 96.5825 108.752C96.406 109.284 96.1615 109.79 95.855 110.259C96.552 111.664 97.6875 112.804 99.0897 113.507C100.009 113.954 101.032 114.147 102.051 114.065C101.935 113.819 101.831 113.572 101.727 113.312C100.7 110.519 101.207 107.31 103.273 103.465C104.637 100.932 105.754 99.7369 106.793 99.7369C107.069 99.7406 107.338 99.8233 107.568 99.9753C107.798 100.127 107.98 100.342 108.092 100.594C109.222 102.686 108.404 109.584 106.169 113.013C105.646 113.799 104.919 114.428 104.065 114.832C105.806 117.118 109.118 119.132 114.457 121.184C114.537 121.213 114.611 121.258 114.673 121.315C114.736 121.373 114.786 121.443 114.821 121.52C114.856 121.598 114.876 121.682 114.878 121.767C114.88 121.852 114.865 121.936 114.834 122.016C114.784 122.151 114.69 122.266 114.568 122.343C114.446 122.421 114.302 122.456 114.159 122.444ZM106.78 101.049C106.78 101.049 106.04 101.049 104.403 104.102C102.519 107.583 102.038 110.454 102.935 112.87C103.043 113.169 103.174 113.46 103.325 113.741C104.028 113.45 104.626 112.951 105.039 112.312C106.858 109.532 107.728 103.816 107.053 101.582C106.962 101.127 106.78 101.049 106.78 101.049ZM97.4529 95.58C96.7497 97.059 96.1675 98.5925 95.7122 100.166C94.7158 102.892 94.5442 105.851 95.2185 108.674L95.3354 108.337C96.6996 104.219 97.4268 99.9172 97.4918 95.58H97.4529ZM88.9052 91.488C88.6843 91.6829 88.0478 92.5013 87.1515 95.6709C86.0913 99.2282 86.4258 103.056 88.0868 106.375C88.3533 105.794 88.5496 105.184 88.6713 104.556C90.0613 98.1781 89.6716 92.4103 88.9441 91.488H88.9052Z" fill="#263238"/>
<path d="M163.547 190.54C161.471 190.56 159.426 190.026 157.624 188.994C157.475 188.905 157.368 188.761 157.324 188.593C157.28 188.426 157.304 188.248 157.39 188.098C157.433 188.024 157.49 187.96 157.558 187.91C157.626 187.859 157.703 187.822 157.785 187.801C157.867 187.781 157.953 187.777 158.037 187.79C158.121 187.803 158.201 187.832 158.273 187.877C162.911 190.592 168.899 188.695 170.134 186.708C170.223 186.583 170.286 186.442 170.319 186.292C170.353 186.143 170.356 185.988 170.328 185.837C167.957 185.974 165.609 185.305 163.664 183.941C160.352 181.875 160.092 181.252 160.118 180.758C160.124 180.616 160.169 180.479 160.246 180.36C160.324 180.241 160.432 180.145 160.56 180.083C161.859 179.433 167.717 182.122 170.16 183.733C170.452 183.927 170.723 184.154 170.965 184.408C171.925 184.191 172.789 183.672 173.433 182.927C173.795 182.502 174.057 182 174.2 181.46H173.94C171.861 181.667 169.783 180.771 167.561 178.719C166.029 177.316 165.444 176.341 165.639 175.575C165.698 175.359 165.817 175.166 165.983 175.016C166.149 174.866 166.354 174.767 166.574 174.73C168.367 174.276 172.81 176.172 174.615 178.16C175.018 178.592 175.304 179.12 175.447 179.693C177.148 178.9 178.941 177.095 181.059 174.146C181.108 174.076 181.17 174.016 181.243 173.97C181.315 173.924 181.396 173.893 181.481 173.878C181.565 173.864 181.652 173.866 181.735 173.886C181.819 173.905 181.898 173.94 181.968 173.99C182.107 174.092 182.201 174.243 182.23 174.413C182.259 174.583 182.221 174.757 182.124 174.899C179.669 178.329 177.616 180.277 175.564 181.07C175.457 182.03 175.063 182.936 174.433 183.668C173.685 184.538 172.702 185.174 171.601 185.5C171.663 185.81 171.663 186.129 171.601 186.439C171.538 186.749 171.415 187.043 171.238 187.305C170.147 189.163 167.003 190.54 163.547 190.54ZM162.391 181.524C162.833 181.849 163.457 182.278 164.353 182.824C165.75 183.766 167.355 184.354 169.029 184.538C166.939 183.284 164.711 182.273 162.391 181.524ZM166.925 176.004C167.298 176.706 167.816 177.322 168.445 177.809C170.367 179.589 172.121 180.407 173.81 180.199H174.226C174.133 179.796 173.936 179.424 173.654 179.121C171.835 177.069 167.834 175.796 166.925 176.004Z" fill="#263238"/>
<path d="M180.747 188.761L160.508 192.437L142.126 92.125L103.077 99.2178L39.4238 212.235L46.2568 249.53L127.902 234.708L133.488 265.21L172.537 258.091L166.951 227.589L187.19 223.913L180.747 188.761ZM78.3172 207.428L112.092 148.231L121.51 199.595L78.3172 207.428Z" fill="#2C3489"/>
<path d="M343.764 85.317C343.15 79.0111 341.753 72.806 339.607 66.8446C337.4 61.1342 334.333 55.7943 330.514 51.0093C325.993 45.4424 320.378 40.862 314.016 37.5512C307.088 33.7493 297.899 31.1036 286.45 29.6141C262.678 26.5137 244.154 30.7312 230.877 42.2667C217.601 53.8022 208.854 75.886 204.637 108.518C202.953 120.713 202.517 133.049 203.338 145.333C204.204 156.591 206.273 165.654 209.547 172.522C213.713 181.783 220.284 189.759 228.578 195.619C236.779 201.378 248.038 205.184 262.353 207.037C287.797 210.354 306.664 205.466 318.952 192.371C331.241 179.277 339.382 157.15 343.375 125.99C345.149 112.498 345.28 98.8406 343.764 85.317Z" fill="#2C3489"/>
<path d="M274.057 193.696C270.926 193.592 267.562 193.307 264.171 192.865C252.272 191.319 243.075 188.305 236.813 183.915C230.569 179.505 225.632 173.491 222.524 166.507L222.459 166.365C219.965 161.168 218.328 153.699 217.614 144.281C216.857 132.968 217.257 121.607 218.809 110.376C223.446 74.3663 233.02 59.3363 240.23 53.075C248.648 45.7743 260.014 42.4748 274.953 42.9944C278.019 43.0983 281.267 43.3711 284.605 43.7998C294.192 45.0988 301.792 47.1773 307.17 50.1131C311.817 52.5063 315.931 55.8162 319.264 59.843C322.18 63.4799 324.523 67.5407 326.214 71.8851C327.939 76.7294 329.057 81.7693 329.539 86.8891C330.925 99.2946 330.798 111.823 329.162 124.198C325.564 152.179 318.601 171.846 308.482 182.655C300.973 190.657 289.711 194.346 274.044 193.748L274.057 193.696Z" fill="#F2F3FF"/>
<path d="M299.48 85.6956L299.649 80.7722L296.622 79.7849C296.493 78.1197 296.224 76.4684 295.817 74.8486L298.415 72.952L296.674 68.3274L293.504 68.5872C292.759 67.1009 291.89 65.6799 290.906 64.3393L292.543 61.5983L289.166 58L286.334 59.4549C285.067 58.3655 283.711 57.3835 282.281 56.5191L282.735 53.3754L278.241 51.3359L276.188 53.7521C274.599 53.237 272.969 52.8547 271.317 52.6089L270.55 49.5302L265.614 49.3613L264.64 52.3751C262.975 52.5083 261.324 52.7777 259.703 53.1805L257.794 50.5824L253.169 52.3102L253.429 55.4798C251.943 56.2258 250.522 57.0949 249.181 58.0779L246.453 56.4281L242.842 59.7926L244.297 62.6376C243.204 63.9038 242.226 65.2645 241.374 66.7036L238.23 66.2229L236.178 70.7176L238.607 72.7701C238.08 74.3605 237.697 75.9953 237.464 77.6545L234.372 78.4339L234.203 83.3443L237.23 84.3316C237.357 86.0013 237.626 87.6571 238.035 89.2809L235.437 91.1646L237.178 95.7891L240.348 95.5293C241.086 97.0198 241.955 98.4414 242.946 99.7772L241.296 102.518L244.673 106.117L247.505 104.675C248.773 105.76 250.128 106.738 251.558 107.597L251.091 110.741L255.585 112.781L257.651 110.377C259.245 110.89 260.878 111.268 262.535 111.508L263.302 114.599L268.225 114.768L269.199 111.741C270.869 111.615 272.525 111.345 274.149 110.936L276.032 113.534L280.657 111.806L280.41 108.65C281.891 107.894 283.311 107.026 284.658 106.052L287.386 107.688L290.997 104.324L289.555 101.479C290.644 100.217 291.617 98.8606 292.465 97.426L295.609 97.8936L297.661 93.3989L295.245 91.3464C295.762 89.7584 296.14 88.1284 296.375 86.475L299.48 85.6956ZM266.225 101.635C262.377 101.494 258.657 100.217 255.535 97.9643C252.413 95.7115 250.028 92.5843 248.681 88.9774C247.334 85.3704 247.087 81.4453 247.969 77.6976C248.851 73.9498 250.824 70.5474 253.638 67.9198C256.452 65.2922 259.981 63.5572 263.781 62.9337C267.58 62.3102 271.479 62.8263 274.985 64.4167C278.491 66.0071 281.448 68.6006 283.482 71.8699C285.515 75.1391 286.535 78.9375 286.412 82.7857C286.33 85.3507 285.742 87.8742 284.682 90.2113C283.621 92.5484 282.11 94.6531 280.234 96.4045C278.359 98.156 276.155 99.5196 273.751 100.417C271.347 101.315 268.789 101.729 266.225 101.635Z" fill="#CC9933"/>
<path opacity="0.3" d="M319.98 176.082L320.343 172.757L318.343 171.951C318.34 170.82 318.244 169.69 318.057 168.574L319.863 167.418L318.941 164.209H316.784C316.358 163.166 315.84 162.161 315.238 161.208L316.459 159.442L314.381 156.844L312.393 157.675C311.588 156.878 310.719 156.148 309.795 155.493L310.276 153.388L307.353 151.777L305.82 153.323C304.776 152.893 303.699 152.55 302.599 152.297L302.235 150.179L298.922 149.803L298.104 151.803C296.975 151.809 295.85 151.913 294.739 152.115L293.583 150.27L290.375 151.219V153.375C289.331 153.806 288.327 154.328 287.374 154.934L285.607 153.635L283.009 155.713L283.84 157.701C283.048 158.507 282.323 159.376 281.671 160.299L279.567 159.831L277.969 162.754L279.502 164.274C279.066 165.32 278.723 166.403 278.475 167.509L276.345 167.859L275.994 171.172L277.982 172.003C277.983 173.127 278.083 174.249 278.28 175.355L276.449 176.511L277.384 179.72H279.554C279.987 180.758 280.509 181.758 281.112 182.708L279.813 184.474L281.892 187.072L283.905 186.228C284.705 187.027 285.574 187.753 286.503 188.397L286.049 190.541L288.972 192.139L290.491 190.619C291.537 191.038 292.614 191.373 293.713 191.619L294.09 193.749L297.402 194.113L298.208 192.126C299.357 192.124 300.504 192.028 301.637 191.84L302.793 193.671L305.989 192.736V190.58C307.033 190.141 308.041 189.62 309.003 189.021L310.744 190.32L313.342 188.228L312.497 186.241C313.298 185.435 314.032 184.566 314.693 183.643L316.784 184.11L318.395 181.188L316.862 179.681C317.28 178.635 317.614 177.558 317.862 176.459L319.98 176.082ZM303.261 174.783C302.711 175.789 301.876 176.609 300.86 177.14C299.844 177.671 298.693 177.888 297.554 177.765C296.414 177.642 295.337 177.183 294.458 176.447C293.579 175.712 292.938 174.732 292.616 173.632C292.295 172.532 292.306 171.361 292.65 170.267C292.994 169.174 293.654 168.207 294.547 167.489C295.441 166.771 296.527 166.334 297.669 166.233C298.811 166.133 299.957 166.373 300.962 166.924C302.306 167.665 303.302 168.907 303.733 170.379C304.163 171.852 303.994 173.435 303.261 174.783Z" fill="#2C3489"/>
<path d="M338.386 119.937L334.489 117.261C334.105 115.87 333.583 114.521 332.93 113.234L333.917 109.337L328.305 103.323L324.408 104.05C323.172 103.314 321.866 102.701 320.511 102.218L318.108 98.1654L309.885 97.8926L307.209 101.79C305.816 102.167 304.466 102.69 303.182 103.349L299.284 102.348L293.27 107.973L293.997 111.87C293.251 113.101 292.637 114.407 292.166 115.767L288.126 118.171L287.84 126.394L291.737 129.07C292.115 130.471 292.637 131.829 293.296 133.123L292.309 137.02L297.92 143.034L301.818 142.32C303.054 143.055 304.36 143.668 305.715 144.152L308.105 148.192L316.341 148.477L319.004 144.58C320.408 144.199 321.771 143.677 323.07 143.021L326.967 144.009L332.982 138.397L332.267 134.5C333.005 133.265 333.619 131.959 334.099 130.603L338.139 128.199L338.386 119.937ZM312.755 132.434C310.927 132.371 309.159 131.768 307.673 130.7C306.188 129.632 305.053 128.147 304.411 126.434C303.769 124.721 303.65 122.856 304.069 121.075C304.487 119.294 305.424 117.677 306.762 116.429C308.099 115.181 309.776 114.357 311.582 114.062C313.387 113.767 315.24 114.014 316.905 114.772C318.57 115.53 319.973 116.765 320.936 118.32C321.899 119.875 322.38 121.681 322.316 123.51C322.228 125.96 321.173 128.275 319.38 129.948C317.588 131.621 315.206 132.515 312.755 132.434Z" fill="white"/>
<path d="M366.589 54.2939L367.265 52.6701C367.724 52.4113 368.159 52.1113 368.564 51.7737H370.071L371.837 49.1757L371.266 47.7857C371.485 47.3227 371.659 46.8399 371.785 46.3437L373.085 45.1486L372.539 42.0959L370.902 41.4204C370.646 40.9597 370.345 40.5247 370.006 40.1213V38.6144L367.473 36.8477L366.07 37.4323C365.557 37.2517 365.025 37.1297 364.485 37.0686L363.29 35.7695L360.25 36.3151L359.561 37.9519C359.079 38.2018 358.623 38.4977 358.198 38.8353H356.704L354.937 41.4334L355.508 42.8233C355.334 43.3379 355.212 43.8689 355.145 44.4082L353.846 45.6163L354.391 48.656L356.028 49.3315C356.276 49.7945 356.572 50.2299 356.911 50.6306V52.1245L359.51 53.8912L360.9 53.3196C361.419 53.4885 361.955 53.606 362.497 53.6703L363.692 54.9694L366.589 54.2939ZM360.094 45.8761C359.971 45.1983 360.052 44.4993 360.327 43.8675C360.601 43.2358 361.057 42.6997 361.637 42.3271C362.216 41.9545 362.893 41.7621 363.582 41.7743C364.27 41.7866 364.94 42.0029 365.506 42.3958C366.071 42.7887 366.508 43.3407 366.76 43.9818C367.012 44.6229 367.068 45.3244 366.921 45.9974C366.774 46.6704 366.431 47.2847 365.935 47.7626C365.439 48.2405 364.812 48.5605 364.134 48.682C363.227 48.8412 362.293 48.6357 361.537 48.1103C360.78 47.5848 360.262 46.7819 360.094 45.8761Z" fill="#2C3489"/>
<path d="M331.006 45.6833L330.006 44.839C332.149 42.1803 334.799 39.9727 337.8 38.3438L338.411 39.4869C335.556 41.0411 333.039 43.1474 331.006 45.6833Z" fill="#2C3489"/>
<path d="M341.372 38.2913L340.865 37.0962C345.662 35.0115 350.908 34.1715 356.116 34.654L355.986 35.953C350.995 35.4826 345.967 36.2871 341.372 38.2913Z" fill="#2C3489"/>
<path d="M338.917 47.2784L337.852 46.5509C340.981 42.3246 345.536 39.3756 350.673 38.25L350.92 39.549C346.119 40.5974 341.858 43.3417 338.917 47.2784Z" fill="#2C3489"/>
<path d="M252.714 172.353C252.537 172.348 252.369 172.274 252.247 172.146L249.532 169.34C248.147 169.214 246.778 168.962 245.44 168.586L241.192 170.457C241.098 170.508 240.993 170.535 240.886 170.535C240.78 170.535 240.675 170.508 240.581 170.457L233.462 165.741C233.371 165.681 233.296 165.598 233.246 165.5C233.196 165.402 233.172 165.293 233.177 165.183V160.558C232.308 159.471 231.542 158.306 230.89 157.077L227.24 155.674C227.138 155.634 227.047 155.569 226.977 155.485C226.906 155.401 226.858 155.301 226.837 155.193L225.149 146.827C225.126 146.72 225.131 146.61 225.163 146.505C225.195 146.401 225.252 146.306 225.33 146.23L228.136 143.515C228.27 142.132 228.523 140.763 228.89 139.423L227.019 135.175C226.968 135.081 226.941 134.976 226.941 134.87C226.941 134.763 226.968 134.658 227.019 134.564L231.735 127.446C231.793 127.352 231.876 127.276 231.974 127.225C232.073 127.175 232.183 127.152 232.293 127.16L236.918 127.225C238.001 126.352 239.167 125.586 240.399 124.938L241.815 121.288C241.853 121.187 241.915 121.097 241.997 121.026C242.079 120.956 242.177 120.907 242.283 120.885L250.649 119.197C250.756 119.173 250.867 119.177 250.971 119.209C251.076 119.241 251.171 119.299 251.246 119.378L253.961 122.184C255.35 122.311 256.724 122.563 258.066 122.938L262.301 121.067C262.397 121.016 262.504 120.989 262.613 120.989C262.722 120.989 262.829 121.016 262.925 121.067L270.03 125.783C270.121 125.846 270.195 125.929 270.247 126.026C270.298 126.123 270.327 126.231 270.329 126.341L270.251 130.966C271.124 132.052 271.894 133.218 272.551 134.447L276.188 135.863C276.289 135.901 276.379 135.963 276.45 136.045C276.52 136.127 276.569 136.225 276.591 136.331L278.292 144.697C278.312 144.804 278.306 144.914 278.275 145.018C278.243 145.122 278.187 145.217 278.111 145.294L275.292 148.022C275.162 149.402 274.91 150.767 274.538 152.101L276.409 156.349C276.46 156.445 276.487 156.552 276.487 156.661C276.487 156.77 276.46 156.877 276.409 156.973L271.758 164.027C271.697 164.115 271.616 164.187 271.521 164.237C271.426 164.287 271.32 164.313 271.213 164.312L266.575 164.247C265.487 165.109 264.327 165.874 263.107 166.534L261.691 170.184C261.652 170.287 261.588 170.378 261.503 170.449C261.419 170.519 261.318 170.567 261.21 170.587L252.844 172.353H252.714ZM245.401 167.157C245.461 167.145 245.522 167.145 245.582 167.157C246.985 167.566 248.426 167.831 249.882 167.95C250.038 167.968 250.184 168.036 250.298 168.145L252.896 170.873L260.56 169.327L261.937 165.767C262.001 165.623 262.111 165.505 262.249 165.43C263.547 164.759 264.77 163.953 265.9 163.026C266.019 162.926 266.172 162.875 266.328 162.883L270.836 162.948L275.149 156.453L273.33 152.322C273.278 152.18 273.278 152.023 273.33 151.881C273.732 150.476 273.997 149.036 274.122 147.581C274.136 147.423 274.205 147.276 274.317 147.165L277.045 144.567L275.499 136.903L271.953 135.526C271.801 135.47 271.675 135.359 271.602 135.214C270.928 133.918 270.123 132.695 269.199 131.564C269.106 131.445 269.056 131.298 269.056 131.148V126.627L262.561 122.314L258.443 124.133C258.296 124.186 258.135 124.186 257.988 124.133C256.581 123.726 255.136 123.461 253.676 123.341C253.52 123.322 253.374 123.254 253.26 123.146L250.662 120.418L242.997 121.977L241.633 125.588C241.579 125.737 241.473 125.861 241.335 125.939C240.032 126.608 238.804 127.414 237.671 128.342C237.615 128.393 237.55 128.431 237.478 128.456C237.407 128.481 237.331 128.49 237.256 128.485L232.748 128.42L228.422 134.915L230.241 139.046C230.282 139.133 230.304 139.229 230.304 139.325C230.304 139.422 230.282 139.517 230.241 139.605C229.856 140.976 229.604 142.381 229.487 143.801C229.475 143.958 229.406 144.106 229.292 144.216L226.564 146.814L228.123 154.479L231.657 155.856C231.814 155.921 231.943 156.041 232.02 156.193C232.69 157.481 233.491 158.695 234.411 159.818C234.507 159.934 234.558 160.082 234.554 160.233V164.754L241.049 169.067L245.18 167.248C245.247 167.205 245.322 167.174 245.401 167.157ZM251.779 162.948C248.652 162.946 245.585 162.096 242.902 160.489C240.22 158.882 238.023 156.578 236.545 153.823C235.068 151.067 234.364 147.963 234.51 144.839C234.656 141.716 235.645 138.69 237.373 136.084C239.025 133.584 241.298 131.555 243.97 130.197C246.641 128.839 249.619 128.197 252.613 128.334C255.607 128.472 258.514 129.384 261.049 130.981C263.585 132.579 265.663 134.807 267.079 137.449C268.495 140.09 269.202 143.053 269.13 146.049C269.058 149.045 268.209 151.972 266.667 154.541C265.125 157.111 262.943 159.237 260.333 160.711C257.723 162.184 254.776 162.955 251.779 162.948ZM238.464 136.799C236.715 139.437 235.788 142.534 235.8 145.699C235.811 148.864 236.761 151.955 238.529 154.58C240.297 157.205 242.804 159.247 245.732 160.448C248.661 161.649 251.879 161.954 254.981 161.326C258.083 160.697 260.93 159.163 263.16 156.918C265.39 154.672 266.904 151.815 267.511 148.709C268.118 145.603 267.79 142.386 266.569 139.466C265.348 136.546 263.289 134.054 260.651 132.304C258.902 131.133 256.939 130.321 254.874 129.913C252.809 129.505 250.684 129.51 248.621 129.928C246.558 130.346 244.599 131.168 242.855 132.348C241.112 133.527 239.619 135.04 238.464 136.799Z" fill="#2C3489"/>
<path d="M500.169 200.476L479.774 197.722L493.258 96.6438L453.923 91.3438L358.508 179.185L353.494 216.766L435.711 227.86L431.606 258.609L470.941 263.909L475.046 233.173L495.441 235.927L500.169 200.476ZM396.999 186.551L447.35 140.655L440.439 192.409L396.999 186.551Z" fill="#2C3489"/>
<path d="M458.99 262.946H458.821C458.652 262.914 458.503 262.817 458.406 262.676C458.308 262.535 458.271 262.361 458.301 262.192L488.699 95.9928C488.734 95.8259 488.831 95.6787 488.971 95.582C489.112 95.4852 489.284 95.4462 489.452 95.4732C489.621 95.5048 489.77 95.6017 489.867 95.7428C489.965 95.884 490.002 96.0579 489.972 96.2266L459.639 262.413C459.609 262.563 459.528 262.699 459.41 262.796C459.291 262.893 459.143 262.946 458.99 262.946Z" fill="#263238"/>
<path d="M485.877 98.7904C485.867 99.0729 485.745 99.3398 485.538 99.5322C485.331 99.7247 485.056 99.827 484.773 99.8167C484.491 99.8064 484.224 99.6842 484.031 99.4771C483.839 99.2701 483.736 98.995 483.747 98.7125C483.757 98.43 483.879 98.1631 484.086 97.9707C484.293 97.7782 484.568 97.6759 484.851 97.6863C485.134 97.6966 485.4 97.8187 485.593 98.0258C485.785 98.2329 485.888 98.5079 485.877 98.7904Z" fill="#263238"/>
<path d="M481.555 121.261C481.548 121.472 481.478 121.675 481.354 121.846C481.231 122.016 481.059 122.147 480.862 122.22C480.665 122.293 480.45 122.307 480.245 122.258C480.04 122.209 479.854 122.101 479.711 121.947C479.567 121.792 479.473 121.599 479.439 121.391C479.406 121.183 479.435 120.97 479.522 120.778C479.61 120.587 479.752 120.426 479.932 120.315C480.111 120.204 480.319 120.149 480.529 120.157C480.669 120.162 480.807 120.195 480.934 120.253C481.061 120.311 481.176 120.394 481.271 120.496C481.367 120.599 481.441 120.719 481.49 120.85C481.538 120.982 481.561 121.121 481.555 121.261Z" fill="#263238"/>
<path d="M477.227 143.775C477.222 143.915 477.189 144.052 477.131 144.18C477.073 144.307 476.99 144.422 476.888 144.517C476.785 144.612 476.665 144.686 476.533 144.735C476.402 144.784 476.263 144.806 476.123 144.801C475.983 144.798 475.846 144.767 475.719 144.71C475.592 144.653 475.477 144.572 475.381 144.47C475.286 144.369 475.212 144.249 475.163 144.119C475.114 143.988 475.091 143.849 475.096 143.71C475.1 143.569 475.131 143.43 475.189 143.301C475.246 143.172 475.329 143.056 475.431 142.959C475.534 142.863 475.655 142.787 475.787 142.738C475.919 142.688 476.06 142.665 476.201 142.671C476.482 142.684 476.747 142.807 476.939 143.014C477.131 143.22 477.234 143.493 477.227 143.775Z" fill="#263238"/>
<path d="M468.708 167.155C468.679 167.416 468.555 167.657 468.36 167.832C468.164 168.006 467.911 168.103 467.649 168.103C467.387 168.103 467.134 168.006 466.939 167.832C466.743 167.657 466.619 167.416 466.59 167.155C466.574 167.006 466.589 166.856 466.635 166.713C466.68 166.57 466.756 166.439 466.856 166.327C466.955 166.216 467.078 166.127 467.215 166.065C467.351 166.004 467.499 165.973 467.649 165.973C467.799 165.973 467.947 166.004 468.084 166.065C468.221 166.127 468.343 166.216 468.443 166.327C468.543 166.439 468.618 166.57 468.664 166.713C468.709 166.856 468.724 167.006 468.708 167.155Z" fill="#263238"/>
<path d="M468.565 188.682C468.562 188.822 468.531 188.96 468.473 189.089C468.415 189.217 468.333 189.332 468.23 189.428C468.127 189.523 468.006 189.597 467.874 189.645C467.742 189.694 467.601 189.715 467.461 189.708C467.251 189.7 467.047 189.63 466.877 189.506C466.706 189.383 466.576 189.212 466.502 189.014C466.429 188.817 466.416 188.602 466.464 188.397C466.513 188.192 466.621 188.006 466.776 187.863C466.93 187.72 467.123 187.625 467.331 187.592C467.539 187.558 467.752 187.587 467.944 187.675C468.135 187.762 468.297 187.905 468.407 188.084C468.518 188.263 468.573 188.471 468.565 188.682Z" fill="#263238"/>
<path d="M464.238 211.154C464.232 211.366 464.164 211.57 464.042 211.743C463.92 211.915 463.75 212.047 463.553 212.123C463.355 212.198 463.14 212.213 462.934 212.166C462.729 212.119 462.541 212.011 462.397 211.857C462.252 211.704 462.156 211.51 462.122 211.302C462.087 211.094 462.115 210.88 462.203 210.687C462.29 210.495 462.432 210.333 462.612 210.222C462.792 210.111 463 210.056 463.211 210.063C463.492 210.073 463.756 210.194 463.949 210.398C464.141 210.602 464.245 210.874 464.238 211.154Z" fill="#263238"/>
<path d="M459.91 233.627C459.9 233.911 459.779 234.179 459.572 234.374C459.365 234.569 459.09 234.674 458.806 234.667C458.666 234.662 458.529 234.629 458.401 234.571C458.274 234.513 458.16 234.43 458.064 234.327C457.969 234.225 457.895 234.104 457.846 233.973C457.797 233.842 457.775 233.702 457.78 233.563C457.784 233.423 457.816 233.285 457.874 233.157C457.931 233.03 458.013 232.915 458.115 232.819C458.217 232.723 458.337 232.648 458.468 232.598C458.598 232.549 458.738 232.526 458.878 232.53C459.018 232.534 459.155 232.566 459.283 232.623C459.41 232.681 459.526 232.763 459.621 232.865C459.717 232.967 459.792 233.087 459.842 233.217C459.891 233.348 459.915 233.488 459.91 233.627Z" fill="#263238"/>
<path d="M455.573 256.115C455.565 256.325 455.495 256.529 455.372 256.699C455.248 256.87 455.077 257 454.88 257.073C454.682 257.147 454.467 257.16 454.263 257.111C454.058 257.063 453.872 256.954 453.728 256.8C453.585 256.646 453.491 256.453 453.457 256.245C453.423 256.037 453.452 255.823 453.54 255.632C453.627 255.44 453.77 255.279 453.949 255.169C454.128 255.058 454.336 255.003 454.547 255.01C454.687 255.014 454.826 255.045 454.954 255.103C455.082 255.16 455.197 255.243 455.293 255.346C455.389 255.449 455.463 255.57 455.511 255.702C455.559 255.834 455.58 255.974 455.573 256.115Z" fill="#263238"/>
<path d="M467.64 167.74C467.494 167.74 467.352 167.69 467.238 167.598C467.125 167.506 467.046 167.377 467.016 167.234C466.997 167.15 466.995 167.064 467.009 166.979C467.024 166.894 467.055 166.814 467.101 166.741C467.147 166.669 467.206 166.606 467.277 166.557C467.347 166.508 467.426 166.473 467.51 166.454L470.732 165.766C470.816 165.747 470.904 165.745 470.989 165.76C471.074 165.776 471.155 165.808 471.228 165.855C471.301 165.902 471.363 165.963 471.412 166.035C471.46 166.107 471.494 166.188 471.511 166.272C471.528 166.356 471.529 166.442 471.512 166.526C471.496 166.61 471.464 166.689 471.417 166.761C471.37 166.832 471.309 166.893 471.238 166.941C471.167 166.988 471.088 167.022 471.004 167.039L467.783 167.727L467.64 167.74Z" fill="#263238"/>
<path d="M478.408 155.777C476.875 159.752 475.574 163.812 474.511 167.936C473.536 172.522 473.484 182.784 473.484 182.784" fill="#263238"/>
<path d="M473.485 183.433C473.313 183.427 473.15 183.354 473.029 183.231C472.908 183.108 472.839 182.943 472.836 182.771C472.836 182.355 472.914 172.378 473.888 167.806C474.945 163.645 476.247 159.55 477.785 155.543C477.811 155.457 477.855 155.378 477.913 155.31C477.971 155.242 478.042 155.187 478.122 155.148C478.203 155.108 478.29 155.086 478.38 155.083C478.469 155.079 478.558 155.094 478.641 155.126C478.725 155.158 478.8 155.207 478.864 155.27C478.927 155.333 478.977 155.408 479.01 155.491C479.043 155.574 479.059 155.663 479.056 155.753C479.053 155.842 479.032 155.93 478.993 156.01C477.463 159.954 476.161 163.984 475.096 168.078C474.148 172.547 474.083 182.68 474.07 182.784C474.071 182.945 474.011 183.101 473.903 183.221C473.795 183.341 473.646 183.417 473.485 183.433Z" fill="#263238"/>
<path d="M235.969 295.555C237.774 266.457 234.462 213.547 289.165 220.562C347.79 228.057 331.02 296.621 331.02 296.621L235.969 295.555Z" fill="#263238"/>
<path d="M273.718 278.071C286.905 278.071 297.595 267.381 297.595 254.195C297.595 241.008 286.905 230.318 273.718 230.318C260.532 230.318 249.842 241.008 249.842 254.195C249.842 267.381 260.532 278.071 273.718 278.071Z" fill="white"/>
<path d="M276.862 230.358C265.548 228.435 253.48 236.762 252.271 245.206L297.101 249.337C295.517 239.711 285.826 231.89 276.862 230.358Z" fill="#263238"/>
<path d="M291.998 253.594C291.673 259.843 288.269 264.74 284.398 264.532C280.527 264.324 277.643 259.115 277.903 252.841C278.163 246.566 281.631 241.695 285.502 241.903C289.374 242.111 292.309 247.359 291.998 253.594Z" fill="#263238"/>
<path d="M273.718 279.369C268.739 279.369 263.872 277.892 259.732 275.126C255.592 272.359 252.365 268.428 250.459 263.827C248.554 259.227 248.055 254.165 249.027 249.282C249.998 244.398 252.396 239.912 255.917 236.391C259.438 232.87 263.923 230.473 268.807 229.501C273.691 228.53 278.752 229.028 283.353 230.934C287.953 232.839 291.885 236.066 294.651 240.206C297.417 244.346 298.894 249.214 298.894 254.193C298.887 260.868 296.232 267.267 291.513 271.987C286.793 276.707 280.393 279.362 273.718 279.369ZM273.718 231.629C269.253 231.629 264.887 232.953 261.174 235.435C257.461 237.916 254.567 241.443 252.858 245.569C251.15 249.695 250.704 254.236 251.576 258.615C252.448 262.995 254.6 267.018 257.758 270.175C260.917 273.332 264.941 275.482 269.322 276.351C273.702 277.221 278.242 276.772 282.367 275.061C286.493 273.35 290.018 270.454 292.497 266.74C294.976 263.025 296.298 258.659 296.296 254.193C296.289 248.208 293.908 242.471 289.675 238.241C285.442 234.01 279.703 231.632 273.718 231.629Z" fill="#2C3489"/>
<path opacity="0.3" d="M324.354 294.828H324.198C324.115 294.81 324.036 294.775 323.966 294.725C323.896 294.676 323.837 294.613 323.792 294.54C323.747 294.467 323.718 294.386 323.705 294.302C323.692 294.217 323.696 294.131 323.717 294.048C323.717 293.88 327.9 276.265 323.6 258.455C323.559 258.282 323.588 258.101 323.68 257.95C323.773 257.799 323.922 257.691 324.094 257.649C324.266 257.608 324.448 257.637 324.599 257.729C324.75 257.822 324.858 257.971 324.9 258.143C329.277 276.33 325.055 294.178 325.016 294.347C324.978 294.491 324.891 294.618 324.77 294.705C324.65 294.793 324.503 294.836 324.354 294.828Z" fill="white"/>
<path opacity="0.3" d="M320.732 248.687C320.607 248.685 320.485 248.649 320.38 248.583C320.274 248.516 320.189 248.422 320.134 248.31C318.52 244.741 316.45 241.396 313.977 238.359C313.869 238.226 313.818 238.056 313.835 237.886C313.852 237.716 313.936 237.559 314.068 237.45C314.134 237.395 314.21 237.353 314.293 237.328C314.375 237.302 314.462 237.293 314.548 237.302C314.634 237.31 314.717 237.336 314.793 237.377C314.869 237.418 314.936 237.474 314.99 237.541C317.524 240.666 319.65 244.102 321.316 247.764C321.353 247.841 321.375 247.924 321.379 248.009C321.383 248.094 321.37 248.179 321.341 248.259C321.312 248.339 321.268 248.412 321.21 248.474C321.152 248.537 321.082 248.587 321.005 248.622C320.919 248.661 320.826 248.684 320.732 248.687Z" fill="white"/>
<path d="M114.222 432.058H113.742C112.019 432.01 110.386 431.279 109.202 430.027C108.018 428.775 107.38 427.104 107.428 425.381C107.477 423.658 108.207 422.025 109.459 420.841C110.712 419.657 112.383 419.019 114.105 419.068H114.222C117.977 419.068 127.005 414.508 145.893 384.734C146.394 383.943 147.061 383.27 147.847 382.761C148.632 382.252 149.519 381.919 150.446 381.784C151.372 381.65 152.317 381.717 153.215 381.982C154.113 382.247 154.943 382.702 155.649 383.318C170.482 396.069 186.66 407.168 203.895 416.418C204.693 416.78 205.409 417.301 206 417.947C206.591 418.594 207.046 419.354 207.336 420.181C207.626 421.008 207.745 421.885 207.687 422.759C207.629 423.633 207.395 424.487 206.999 425.268C206.602 426.05 206.052 426.743 205.381 427.306C204.709 427.869 203.931 428.291 203.092 428.545C202.254 428.8 201.373 428.882 200.501 428.787C199.63 428.692 198.788 428.421 198.024 427.992C182.005 419.48 166.863 409.411 152.817 397.932C136.982 421.77 125.238 432.058 114.222 432.058Z" fill="#263238"/>
<path d="M154.414 382.149H153.856C152.835 382.001 151.914 381.454 151.296 380.629C150.677 379.803 150.411 378.766 150.556 377.745C151.478 371.25 150.335 347.049 142.138 328.212C141.775 327.38 141.713 326.447 141.965 325.574C142.216 324.701 142.765 323.943 143.515 323.432C161.312 311.312 199.218 309.857 200.829 309.805C201.341 309.788 201.851 309.872 202.33 310.052C202.81 310.232 203.249 310.505 203.623 310.855C203.997 311.204 204.298 311.624 204.51 312.091C204.721 312.557 204.839 313.06 204.856 313.572C204.873 314.084 204.789 314.594 204.609 315.073C204.429 315.553 204.156 315.992 203.807 316.366C203.457 316.74 203.037 317.041 202.57 317.253C202.104 317.464 201.601 317.582 201.089 317.599C200.738 317.599 167.6 318.898 150.582 328.251C157.831 347.01 159.481 370.379 158.272 378.836C158.132 379.759 157.666 380.6 156.958 381.208C156.25 381.816 155.347 382.15 154.414 382.149Z" fill="#263238"/>
<path d="M160.962 377.111C158.363 370.993 146.672 371.681 139.826 376.93C136.163 379.722 131.2 388.153 130.733 391.219C130.577 391.947 130.6 392.703 130.801 393.42C131.001 394.138 131.373 394.796 131.884 395.338C132.396 395.879 133.031 396.289 133.735 396.531C134.44 396.773 135.193 396.84 135.929 396.727C140.411 396.337 146.555 389.829 146.555 389.829C142.463 393.843 147.75 396.675 155.648 390.868C159.961 387.634 163.858 383.957 160.962 377.111Z" fill="#2C3489"/>
<path d="M384.397 297.269C384.337 297.283 384.275 297.283 384.215 297.269C384.132 297.247 384.055 297.208 383.987 297.155C383.92 297.102 383.864 297.036 383.823 296.961C383.781 296.885 383.756 296.803 383.747 296.717C383.739 296.632 383.748 296.546 383.773 296.464C385.501 290.436 387.385 286.76 389.866 284.772C389.477 283.375 389.55 281.89 390.074 280.538C390.679 278.959 391.748 277.6 393.14 276.64C392.761 276.232 392.493 275.734 392.359 275.193C392.224 274.653 392.23 274.087 392.373 273.549C392.843 271.921 393.816 270.484 395.153 269.444C394.671 268.905 394.407 268.205 394.413 267.482C394.413 263.585 401.57 257.713 409.689 256.596C409.862 256.572 410.036 256.617 410.175 256.722C410.314 256.827 410.406 256.982 410.43 257.155C410.454 257.327 410.409 257.502 410.304 257.641C410.199 257.78 410.043 257.871 409.871 257.895C402.155 258.947 395.686 264.533 395.712 267.482C395.709 267.922 395.877 268.345 396.179 268.664C397.927 267.479 399.893 266.654 401.963 266.237C404.032 265.82 406.164 265.819 408.234 266.235C412.222 267.001 413.846 267.846 413.664 269.054C413.301 271.327 404.818 271.808 399.128 271.132C398.109 271.04 397.117 270.753 396.205 270.288C394.98 271.16 394.069 272.404 393.607 273.834C393.496 274.213 393.497 274.616 393.61 274.994C393.723 275.372 393.943 275.709 394.244 275.965C396.66 274.666 400.05 274.198 404.532 275.185C410.417 276.485 410.638 277.199 410.781 277.628C410.826 277.779 410.83 277.94 410.791 278.094C410.752 278.247 410.672 278.387 410.56 278.498C409.326 279.797 400.297 279.187 395.764 278.069C395.216 277.945 394.688 277.748 394.192 277.485C392.85 278.3 391.817 279.539 391.256 281.005C390.881 281.954 390.777 282.989 390.957 283.993C391.188 283.855 391.427 283.729 391.672 283.616C394.361 282.317 397.608 282.551 401.622 284.266C404.22 285.396 405.519 286.409 405.649 287.435C405.655 287.699 405.589 287.959 405.459 288.187C405.328 288.416 405.138 288.605 404.909 288.735C402.921 290.034 395.984 289.852 392.373 287.929C391.543 287.478 390.851 286.809 390.373 285.994C388.255 287.942 386.54 291.411 384.982 296.854C384.934 296.972 384.854 297.074 384.75 297.147C384.647 297.221 384.524 297.263 384.397 297.269ZM391.438 285.149C391.799 285.821 392.351 286.372 393.023 286.734C395.958 288.293 401.726 288.644 403.883 287.773C404.324 287.591 404.389 287.448 404.389 287.448C404.389 287.448 404.324 286.721 401.142 285.357C397.504 283.798 394.646 283.577 392.269 284.681C391.982 284.82 391.705 284.976 391.438 285.149ZM395.777 276.614L396.101 276.705C400.332 277.68 404.685 278.009 409.014 277.68C407.478 277.11 405.896 276.675 404.285 276.381C401.487 275.623 398.529 275.704 395.777 276.614ZM397.413 269.314C398.013 269.529 398.637 269.668 399.271 269.729C405.766 270.496 411.469 269.6 412.261 268.781C412.041 268.586 411.17 268.028 407.949 267.417C404.323 266.694 400.559 267.372 397.413 269.314Z" fill="#263238"/>
<path d="M215.288 429.889C216.146 429.616 215.86 428.785 214.898 428.785H197.309C163.82 425.239 140.424 429.993 155.168 431.11C169.913 432.227 154.129 431.994 143.36 436.073C132.591 440.152 223.446 441.178 231.695 436.073C239.281 431.37 203.415 433.695 215.288 429.889Z" fill="#263238"/>
<path d="M341.218 435.069L188.19 429.99L181.838 281.613L362.548 285.653L341.218 435.069Z" fill="#2C3489"/>
<path d="M235.97 432.23C235.807 432.231 235.649 432.17 235.529 432.059C235.408 431.948 235.334 431.796 235.321 431.633L223.058 282.606C223.047 282.435 223.103 282.266 223.215 282.135C223.326 282.004 223.484 281.921 223.656 281.905C223.826 281.897 223.994 281.955 224.124 282.066C224.254 282.176 224.337 282.333 224.357 282.503L236.685 431.529C236.692 431.614 236.682 431.7 236.656 431.782C236.63 431.863 236.588 431.939 236.532 432.004C236.477 432.069 236.409 432.123 236.332 432.162C236.256 432.2 236.173 432.224 236.087 432.23H235.97Z" fill="#263238"/>
<path d="M341.219 435.072L382.346 428.811L395.298 290.839L362.549 285.656L341.219 435.072Z" fill="#2C3489"/>
<path opacity="0.2" d="M341.219 435.072L382.346 428.811L395.298 290.839L362.549 285.656L341.219 435.072Z" fill="black"/>
<path d="M201.26 401.402L197.493 313.236C197.4 311.058 197.755 308.884 198.536 306.848C199.316 304.813 200.506 302.959 202.032 301.402C203.557 299.845 205.386 298.617 207.405 297.795C209.424 296.972 211.591 296.573 213.77 296.621L328.164 299.219C330.416 299.27 332.632 299.798 334.666 300.768C336.7 301.738 338.505 303.128 339.962 304.846C341.419 306.565 342.495 308.573 343.119 310.738C343.743 312.903 343.902 315.175 343.583 317.406L330.905 406.182C330.356 410.071 328.392 413.619 325.388 416.149C322.384 418.678 318.553 420.009 314.628 419.887L216.693 416.64C212.672 416.516 208.848 414.876 205.985 412.05C203.123 409.224 201.435 405.42 201.26 401.402Z" fill="#F2F3FF"/>
<path d="M213.624 323.682L231.317 324.24L231.174 328.8L220.093 328.449L219.989 331.853L230.265 332.177L230.122 336.542L219.846 336.204L219.717 340.426L231.109 340.79L230.953 345.623L212.936 345.051L213.624 323.682Z" fill="#2C3489"/>
<path d="M234.605 345.738L235.281 324.369L246.297 324.72C247.876 324.712 249.448 324.939 250.96 325.395C252.033 325.754 252.949 326.469 253.559 327.422C254.01 328.116 254.314 328.895 254.451 329.711C254.588 330.527 254.556 331.363 254.356 332.166C254.156 332.969 253.793 333.722 253.289 334.379C252.786 335.036 252.152 335.581 251.428 335.983C250.69 336.363 249.896 336.626 249.077 336.762C249.681 336.957 250.254 337.237 250.779 337.593C251.158 337.945 251.497 338.337 251.792 338.763C252.126 339.167 252.422 339.602 252.675 340.062L255.676 346.362L248.219 346.115L244.894 339.477C244.63 338.843 244.241 338.269 243.751 337.788C243.284 337.451 242.728 337.261 242.153 337.243H241.568L241.296 345.907L234.605 345.738ZM241.646 333.242L244.426 333.333C245.016 333.297 245.603 333.214 246.18 333.086C246.615 333.02 247.009 332.792 247.284 332.449C247.565 332.103 247.725 331.674 247.739 331.228C247.763 330.931 247.721 330.632 247.616 330.354C247.51 330.075 247.344 329.823 247.128 329.617C246.403 329.149 245.547 328.926 244.686 328.981L241.776 328.89L241.646 333.242Z" fill="#2C3489"/>
<path d="M257.834 346.426L258.509 325.057L269.512 325.407C271.092 325.398 272.664 325.626 274.176 326.083C275.25 326.438 276.168 327.154 276.774 328.109C277.433 329.15 277.743 330.375 277.657 331.604C277.661 332.641 277.384 333.659 276.856 334.551C276.328 335.443 275.568 336.175 274.657 336.67C273.917 337.048 273.124 337.311 272.305 337.45C272.906 337.643 273.475 337.923 273.994 338.281C274.382 338.623 274.727 339.011 275.02 339.437C275.352 339.843 275.648 340.278 275.904 340.736L278.904 347.023L271.448 346.79L268.122 340.152C267.857 339.519 267.468 338.945 266.979 338.463C266.515 338.112 265.95 337.921 265.368 337.917H264.797L264.511 346.595L257.834 346.426ZM264.862 333.929L267.655 334.007C268.245 333.985 268.833 333.906 269.408 333.773C269.84 333.709 270.231 333.481 270.5 333.137C270.791 332.796 270.952 332.364 270.954 331.916C270.983 331.619 270.943 331.321 270.84 331.042C270.736 330.763 270.571 330.511 270.357 330.305C269.632 329.825 268.768 329.601 267.902 329.668L265.005 329.577L264.862 333.929Z" fill="#2C3489"/>
<path d="M279.966 336.502C279.866 335.011 280.097 333.516 280.643 332.125C281.189 330.733 282.037 329.481 283.125 328.456C284.213 327.431 285.514 326.66 286.936 326.198C288.357 325.737 289.863 325.595 291.346 325.785C292.842 325.735 294.333 325.987 295.73 326.525C297.126 327.062 298.401 327.875 299.478 328.915C300.439 330.022 301.164 331.312 301.611 332.708C302.058 334.104 302.216 335.576 302.076 337.034C302.086 339.157 301.587 341.251 300.621 343.14C299.745 344.686 298.435 345.941 296.854 346.751C294.989 347.643 292.926 348.036 290.865 347.895C288.81 347.912 286.777 347.468 284.915 346.595C283.331 345.736 282.038 344.424 281.2 342.828C280.218 340.872 279.791 338.684 279.966 336.502ZM286.565 336.736C286.37 338.373 286.742 340.028 287.617 341.425C288.027 341.882 288.524 342.253 289.08 342.513C289.636 342.774 290.238 342.921 290.852 342.944C291.465 342.967 292.077 342.866 292.65 342.647C293.224 342.429 293.748 342.097 294.191 341.672C295.154 340.214 295.61 338.479 295.49 336.736C295.664 335.17 295.282 333.593 294.411 332.28C294.018 331.826 293.531 331.462 292.984 331.214C292.437 330.965 291.843 330.837 291.242 330.838C290.635 330.794 290.027 330.889 289.462 331.114C288.898 331.339 288.391 331.689 287.981 332.137C286.997 333.463 286.498 335.086 286.565 336.736Z" fill="#2C3489"/>
<path d="M305.416 347.997L306.092 326.615L317.094 326.966C318.673 326.963 320.245 327.191 321.758 327.641C322.827 328.006 323.742 328.72 324.356 329.668C325.012 330.71 325.321 331.934 325.239 333.162C325.246 334.201 324.97 335.222 324.441 336.117C323.913 337.011 323.152 337.746 322.239 338.242C321.496 338.609 320.704 338.867 319.887 339.008C320.488 339.206 321.057 339.49 321.576 339.852C321.964 340.194 322.309 340.582 322.602 341.009C322.937 341.413 323.233 341.848 323.486 342.308L326.487 348.608L319.03 348.374L315.704 341.723C315.44 341.093 315.051 340.523 314.561 340.047C314.095 339.699 313.532 339.503 312.95 339.489H312.379L312.093 348.166L305.416 347.997ZM312.444 335.488L315.237 335.579C315.827 335.556 316.415 335.478 316.99 335.345C317.421 335.276 317.81 335.049 318.082 334.708C318.388 334.346 318.55 333.884 318.536 333.409C318.564 333.115 318.525 332.818 318.422 332.541C318.318 332.265 318.153 332.015 317.939 331.811C317.214 331.331 316.35 331.107 315.484 331.175L312.587 331.084L312.444 335.488Z" fill="#2C3489"/>
<path d="M315.924 384.305C315.681 384.309 315.439 384.262 315.215 384.166C314.991 384.069 314.79 383.926 314.625 383.746L303.506 371.574L291.502 382.538C291.17 382.843 290.73 383.003 290.279 382.984C289.829 382.964 289.404 382.766 289.099 382.434L277.979 370.262L265.976 381.226C265.644 381.531 265.204 381.691 264.753 381.672C264.302 381.652 263.878 381.454 263.573 381.122L252.44 368.95L240.45 379.914C240.275 380.072 240.07 380.193 239.846 380.269C239.623 380.345 239.386 380.375 239.151 380.356C238.7 380.329 238.276 380.129 237.969 379.797L226.849 367.638L214.859 378.589C214.524 378.895 214.082 379.055 213.629 379.036C213.177 379.016 212.75 378.818 212.443 378.485C212.291 378.32 212.174 378.127 212.097 377.917C212.021 377.706 211.987 377.483 211.998 377.259C212.009 377.035 212.064 376.816 212.161 376.614C212.257 376.412 212.393 376.231 212.56 376.082L225.81 363.962C226.145 363.656 226.587 363.496 227.039 363.515C227.492 363.535 227.919 363.733 228.226 364.066L239.346 376.238L251.336 365.274C251.676 364.975 252.118 364.817 252.57 364.832C253.022 364.856 253.447 365.057 253.752 365.391L264.872 377.563L276.875 366.599C277.039 366.446 277.232 366.328 277.442 366.251C277.652 366.173 277.875 366.138 278.099 366.148C278.322 366.158 278.542 366.212 278.744 366.307C278.947 366.402 279.128 366.537 279.278 366.703L290.398 378.875L302.401 367.911C302.734 367.606 303.174 367.446 303.625 367.465C304.075 367.485 304.5 367.683 304.805 368.015L317.223 381.499C317.445 381.747 317.59 382.054 317.641 382.383C317.691 382.712 317.644 383.049 317.507 383.352C317.369 383.655 317.146 383.911 316.865 384.09C316.584 384.268 316.257 384.361 315.924 384.357V384.305Z" fill="white"/>
<path d="M110.351 438.228L102.219 434.343L94.9707 399.048L98.9068 394.723L110.351 438.228Z" fill="#2C3489"/>
<path d="M110.351 438.228L121.146 431.914L111.897 402.842L98.9062 394.723L110.351 438.228Z" fill="#2C3489"/>
<path opacity="0.2" d="M110.351 438.228L121.146 431.914L111.897 402.842L98.9062 394.723L110.351 438.228Z" fill="black"/>
<path d="M287.346 444.648H286.449C284.727 444.602 283.093 443.873 281.908 442.622C280.722 441.371 280.083 439.7 280.129 437.978C280.176 436.255 280.905 434.622 282.156 433.436C283.407 432.251 285.077 431.611 286.8 431.658C296.803 431.983 317.977 425.838 330.084 414.095C330.815 413.378 331.705 412.844 332.682 412.536C353.194 406.379 360.819 418.81 361.131 419.343L349.959 425.955C349.999 426.038 350.047 426.116 350.102 426.189C349.985 426.02 347.076 422.292 337.826 424.578C322.641 438.426 299.336 444.648 287.346 444.648Z" fill="#263238"/>
<path d="M286.554 453.273L262.899 451.792L261.041 408.17L292.829 409.352L286.554 453.273Z" fill="#2C3489"/>
<path d="M286.557 453.27L292.091 447.762L295.52 420.573L292.831 409.35L286.557 453.27Z" fill="#2C3489"/>
<path opacity="0.2" d="M286.557 453.27L292.091 447.762L295.52 420.573L292.831 409.35L286.557 453.27Z" fill="black"/>
<path d="M423.631 436.761C422.782 436.76 421.957 436.481 421.28 435.968C407.77 425.706 389.518 407.48 382.517 389.904C382.411 389.65 382.337 389.384 382.296 389.112C378.879 368.795 375.619 326.043 375.476 324.237C375.437 323.726 375.5 323.211 375.661 322.724C375.821 322.236 376.076 321.785 376.411 321.396C377.087 320.611 378.047 320.126 379.081 320.048C380.114 319.971 381.136 320.307 381.922 320.983C382.708 321.659 383.193 322.619 383.27 323.653C383.27 324.082 386.609 367.249 389.934 387.397C396.923 404.492 415.915 422.042 426.022 429.759C426.672 430.253 427.152 430.938 427.391 431.719C427.631 432.5 427.62 433.336 427.358 434.11C427.097 434.884 426.599 435.556 425.935 436.032C425.271 436.508 424.474 436.762 423.657 436.761H423.631Z" fill="#263238"/>
<path d="M441.645 438.723C438.631 438.723 435.215 437.359 431.486 434.67C430.649 434.063 430.087 433.149 429.924 432.128C429.761 431.108 430.01 430.064 430.616 429.227C431.222 428.389 432.136 427.827 433.157 427.664C434.178 427.501 435.222 427.75 436.059 428.356C439.281 430.682 441.034 430.954 441.645 430.954C442.678 430.954 443.67 431.365 444.401 432.096C445.131 432.827 445.542 433.818 445.542 434.851C445.542 435.885 445.131 436.876 444.401 437.607C443.67 438.338 442.678 438.749 441.645 438.749V438.723Z" fill="#263238"/>
<path d="M432.579 434.553C436.749 422.173 453.844 424.615 459.742 426.46C464.78 427.922 469.612 430.017 474.122 432.695C477.305 434.774 477.357 438.268 473.109 440.256C467.913 442.698 454.715 440.528 454.715 440.528C461.522 443.503 454.715 448.323 442.75 443.594C438.866 442.061 431.111 439.099 432.579 434.553Z" fill="#2C3489"/>
<path d="M391.089 329.535C389.543 340.057 380.827 347.813 373.734 346.773C366.641 345.734 366.355 336.381 367.901 325.807C369.447 315.233 372.253 307.62 379.346 308.659C386.438 309.699 392.635 319.052 391.089 329.535Z" fill="#263238"/>
<path d="M219.639 287.58C220.228 287.58 220.705 287.103 220.705 286.514C220.705 285.926 220.228 285.449 219.639 285.449C219.051 285.449 218.574 285.926 218.574 286.514C218.574 287.103 219.051 287.58 219.639 287.58Z" fill="#263238"/>
<path d="M230.461 294.18C230.461 294.391 230.398 294.597 230.281 294.772C230.164 294.947 229.998 295.084 229.803 295.165C229.608 295.245 229.394 295.266 229.187 295.225C228.981 295.184 228.791 295.083 228.642 294.934C228.493 294.785 228.392 294.595 228.351 294.388C228.309 294.182 228.331 293.967 228.411 293.773C228.492 293.578 228.628 293.412 228.803 293.295C228.979 293.178 229.185 293.115 229.395 293.115C229.678 293.115 229.949 293.227 230.149 293.427C230.348 293.627 230.461 293.898 230.461 294.18Z" fill="#263238"/>
<path d="M231.656 420.055C231.656 420.266 231.593 420.472 231.476 420.647C231.359 420.822 231.193 420.959 230.998 421.04C230.804 421.12 230.589 421.141 230.383 421.1C230.176 421.059 229.986 420.958 229.837 420.809C229.688 420.66 229.587 420.47 229.546 420.263C229.505 420.057 229.526 419.842 229.606 419.648C229.687 419.453 229.824 419.287 229.999 419.17C230.174 419.053 230.38 418.99 230.591 418.99C230.873 418.99 231.144 419.102 231.344 419.302C231.544 419.502 231.656 419.773 231.656 420.055Z" fill="#263238"/>
<path d="M241.412 427.731C241.412 427.942 241.349 428.148 241.232 428.323C241.115 428.498 240.949 428.635 240.754 428.715C240.559 428.796 240.345 428.817 240.139 428.776C239.932 428.735 239.742 428.633 239.593 428.484C239.444 428.335 239.343 428.146 239.302 427.939C239.261 427.732 239.282 427.518 239.362 427.324C239.443 427.129 239.579 426.963 239.755 426.846C239.93 426.729 240.136 426.666 240.346 426.666C240.629 426.666 240.9 426.778 241.1 426.978C241.299 427.178 241.412 427.449 241.412 427.731Z" fill="#263238"/>
<path d="M54.1816 440.501C52.3114 440.413 50.4848 439.907 48.8367 439.019C47.1886 438.131 45.761 436.883 44.6596 435.369C44.6056 435.3 44.5664 435.22 44.5442 435.135C44.5221 435.049 44.5176 434.96 44.5309 434.873C44.5443 434.786 44.5752 434.703 44.6218 434.628C44.6685 434.553 44.7299 434.489 44.8022 434.438C44.8746 434.388 44.9565 434.353 45.0428 434.335C45.1292 434.318 45.2182 434.318 45.3045 434.335C45.3908 434.353 45.4726 434.389 45.5449 434.439C45.6171 434.49 45.6784 434.554 45.7248 434.629C48.154 438.136 53.5191 439.994 55.8574 438.89C56.0916 438.791 56.3003 438.64 56.4679 438.448C55.2864 437.928 54.2512 437.125 53.4537 436.11C52.6561 435.095 52.1209 433.899 51.8953 432.628C51.5965 430.979 51.3627 428.731 52.7137 428.446C54.5843 428.03 57.0265 432.538 57.9099 435.954C58.0699 436.52 58.1271 437.109 58.0787 437.695C58.828 437.918 59.6161 437.98 60.391 437.877C60.7402 437.85 61.08 437.75 61.3887 437.585C61.6973 437.419 61.9681 437.191 62.1837 436.915C61.3288 436.27 60.6196 435.452 60.1025 434.514C59.5854 433.576 59.2721 432.54 59.1829 431.472C58.6893 427.913 59.066 427.302 59.4557 426.991C59.582 426.894 59.7327 426.834 59.891 426.818C60.0493 426.802 60.2089 426.83 60.3521 426.9C61.742 427.484 63.4178 432.525 63.7426 435.382C63.7815 435.68 63.7815 435.981 63.7426 436.279C64.3026 436.494 64.8963 436.608 65.4963 436.617C66.5978 436.659 67.6873 436.375 68.627 435.798C68.4451 435.681 68.2762 435.551 68.1074 435.421C66.8083 434.265 66.2107 432.421 66.4446 429.797C66.6264 427.757 67.0811 426.64 67.8995 426.289C68.1635 426.183 68.4527 426.156 68.7317 426.212C69.0108 426.267 69.2677 426.402 69.4713 426.601C70.3482 427.569 71.0036 428.717 71.3917 429.964C71.7798 431.212 71.8914 432.529 71.7187 433.824C71.6059 434.363 71.3801 434.872 71.0562 435.318C73.4464 435.733 76.798 435.058 79.6948 434.343C79.7801 434.323 79.8686 434.319 79.9552 434.333C80.0419 434.347 80.125 434.377 80.1998 434.423C80.2746 434.469 80.3396 434.529 80.3911 434.6C80.4427 434.671 80.4798 434.752 80.5002 434.837C80.5207 434.922 80.5242 435.011 80.5104 435.097C80.4967 435.184 80.466 435.267 80.4202 435.342C80.3744 435.417 80.3143 435.482 80.2433 435.533C80.1723 435.585 80.0919 435.622 80.0066 435.642C76.4862 436.513 72.693 437.227 70.0169 436.448C68.7107 437.441 67.1111 437.971 65.4703 437.955C64.7422 437.945 64.0213 437.809 63.3399 437.552C63.0376 438.019 62.6322 438.411 62.1547 438.697C61.6773 438.983 61.1406 439.156 60.5859 439.202C59.6094 439.327 58.6174 439.243 57.676 438.955C57.373 439.465 56.9191 439.869 56.377 440.111C55.6802 440.392 54.9325 440.525 54.1816 440.501ZM53.0644 429.745C52.8847 430.628 52.9204 431.541 53.1684 432.408C53.3516 433.446 53.7826 434.426 54.4248 435.262C55.0671 436.099 55.9016 436.769 56.8576 437.214C56.8395 436.906 56.7872 436.601 56.7017 436.305C55.6885 432.59 53.7399 430.03 53.0644 429.745ZM60.3001 428.614C60.3086 429.511 60.3824 430.405 60.5209 431.29C60.6642 432.874 61.3637 434.356 62.4955 435.473C62.1758 433.075 61.4325 430.753 60.3001 428.614ZM68.4711 427.484C68.4711 427.484 67.9774 427.731 67.7956 429.901C67.6137 432.07 67.9904 433.564 69.0037 434.434C69.2435 434.628 69.505 434.794 69.7831 434.928C70.1247 434.562 70.3663 434.115 70.4846 433.629C70.716 431.584 70.1636 429.528 68.9387 427.874C68.6659 427.536 68.5101 427.484 68.4711 427.484Z" fill="#263238"/>
<path d="M244.31 450.318L247.831 444.213L244.31 438.107H240.543L242.673 444.213L240.543 450.318H244.31Z" fill="#263238"/>
<path d="M240.79 447.399C240.356 447.427 239.921 447.365 239.511 447.218C239.102 447.071 238.727 446.842 238.41 446.544C238.092 446.246 237.839 445.887 237.666 445.488C237.494 445.088 237.404 444.658 237.404 444.223C237.404 443.788 237.494 443.357 237.666 442.958C237.839 442.559 238.092 442.199 238.41 441.902C238.727 441.604 239.102 441.375 239.511 441.227C239.921 441.08 240.356 441.019 240.79 441.047L234.815 439.852L233.217 444.684L235.893 448.763L240.79 447.399Z" fill="#263238"/>
<path d="M241.311 438.107H234.257L230.736 444.213L234.257 450.318H241.311L244.831 444.213L241.311 438.107ZM237.79 447.396C237.16 447.398 236.544 447.214 236.018 446.866C235.493 446.517 235.083 446.021 234.84 445.44C234.598 444.859 234.533 444.218 234.654 443.6C234.775 442.982 235.077 442.413 235.522 441.967C235.967 441.521 236.534 441.216 237.151 441.092C237.769 440.969 238.41 441.031 238.992 441.271C239.574 441.512 240.072 441.92 240.423 442.443C240.773 442.967 240.96 443.583 240.96 444.213C240.96 445.055 240.626 445.862 240.032 446.459C239.438 447.055 238.632 447.392 237.79 447.396Z" fill="#2C3489"/>
<path d="M489.855 437.696L487.244 433.163L489.855 428.629H492.648L491.076 433.163L492.648 437.696H489.855Z" fill="#2C3489"/>
<path d="M492.465 435.527C492.789 435.551 493.115 435.508 493.422 435.4C493.729 435.292 494.01 435.123 494.249 434.901C494.487 434.68 494.677 434.412 494.807 434.114C494.937 433.816 495.004 433.494 495.004 433.169C495.004 432.844 494.937 432.522 494.807 432.224C494.677 431.926 494.487 431.658 494.249 431.436C494.01 431.215 493.729 431.045 493.422 430.938C493.115 430.83 492.789 430.787 492.465 430.811L496.908 429.928L498.09 433.513L496.115 436.54L492.465 435.527Z" fill="#2C3489"/>
<path d="M492.086 428.629H497.283L499.881 433.163L497.283 437.696H492.086L489.488 433.163L492.086 428.629ZM494.684 435.527C495.153 435.529 495.611 435.393 496.001 435.135C496.392 434.876 496.697 434.508 496.878 434.076C497.059 433.645 497.108 433.169 497.018 432.709C496.928 432.25 496.704 431.827 496.374 431.495C496.044 431.163 495.622 430.937 495.164 430.845C494.705 430.752 494.228 430.799 493.796 430.977C493.363 431.156 492.993 431.459 492.733 431.848C492.472 432.237 492.333 432.694 492.333 433.163C492.331 433.474 492.391 433.782 492.51 434.069C492.628 434.357 492.802 434.618 493.022 434.838C493.242 435.058 493.503 435.232 493.791 435.35C494.078 435.469 494.386 435.529 494.697 435.527H494.684Z" fill="#263238"/>
<path d="M392.569 443.722H398.441C399.176 443.719 399.879 443.424 400.398 442.903C400.917 442.382 401.208 441.677 401.208 440.942C401.208 440.207 400.917 439.502 400.398 438.981C399.879 438.46 399.176 438.166 398.441 438.162H392.569C391.832 438.162 391.125 438.455 390.603 438.976C390.082 439.498 389.789 440.205 389.789 440.942C389.789 441.679 390.082 442.386 390.603 442.908C391.125 443.429 391.832 443.722 392.569 443.722Z" fill="#263238"/>
<path d="M383.124 438.475C383.669 437.484 384.492 436.674 385.492 436.145C386.492 435.616 387.624 435.392 388.75 435.499C389.876 435.606 390.946 436.04 391.828 436.748C392.71 437.456 393.365 438.406 393.714 439.483C394.062 440.559 394.088 441.713 393.788 442.803C393.488 443.894 392.875 444.873 392.025 445.619C391.176 446.365 390.126 446.847 389.006 447.004C387.886 447.161 386.745 446.987 385.723 446.503C384.318 445.779 383.256 444.528 382.769 443.024C382.283 441.52 382.41 439.885 383.124 438.475Z" fill="#2C3489"/>
<path d="M384.711 446.501L386.32 447.26L391.915 435.392L390.305 434.633L384.711 446.501Z" fill="#263238"/>
</svg>
